<?xml version="1.0" encoding="UTF-8"?>
<svg version="1.1" xmlns="http://www.w3.org/2000/svg" width="68" height="58">
<path d="M0 0 C0.66 0.66 1.32 1.32 2 2 C2.66 1.34 3.32 0.68 4 0 C7.4375 -0.125 7.4375 -0.125 11 0 C11.99 0 12.98 0 14 0 C15.32 0 16.64 0 18 0 C18 2.97 18 5.94 18 9 C19.65 9 21.3 9 23 9 C23 6.03 23 3.06 23 0 C29.8359375 -0.1953125 29.8359375 -0.1953125 32 0 C32.66 0.66 33.32 1.32 34 2 C34.33 1.34 34.66 0.68 35 0 C37.26979665 -0.10794277 39.54105196 -0.18556176 41.8125 -0.25 C43.07707031 -0.29640625 44.34164062 -0.3428125 45.64453125 -0.390625 C49 0 49 0 50.94921875 2.015625 C51.29597656 2.67046875 51.64273438 3.3253125 52 4 C52.33 2.68 52.66 1.36 53 0 C54.32 0 55.64 0 57 0 C57.495 7.425 57.495 7.425 58 15 C57.01 15 56.02 15 55 15 C55 18.3 55 21.6 55 25 C53.68 25 52.36 25 51 25 C50.505 20.545 50.505 20.545 50 16 C47.69 15.67 45.38 15.34 43 15 C43 15.66 43 16.32 43 17 C44.65 17.33 46.3 17.66 48 18 C48.625 20.375 48.625 20.375 49 23 C45.64309064 26.35690936 41.18218602 25.41015688 36.625 25.4375 C35.6659375 25.47037109 34.706875 25.50324219 33.71875 25.53710938 C26.62345606 25.59146051 26.62345606 25.59146051 23.3359375 22.47265625 C22.89507812 21.65667969 22.45421875 20.84070313 22 20 C21.67 21.65 21.34 23.3 21 25 C20.01 25 19.02 25 18 25 C18 20.71 18 16.42 18 12 C13.39467611 10.54685336 13.39467611 10.54685336 11 12 C8.29538433 13.35230784 6.83184883 12.89426805 4 12 C3.34 11.34 2.68 10.68 2 10 C1.67 10.66 1.34 11.32 1 12 C-2.0597052 13.01990173 -3.65166316 13.11083445 -6.75 12.125 C-9 11 -9 11 -10 10 C-10.45681382 3.83301344 -10.45681382 3.83301344 -8.9375 1.0625 C-5.92115289 -0.59162584 -3.36333392 -0.30575763 0 0 Z M-5 3 C-6.10836423 4.88316159 -6.10836423 4.88316159 -7 7 C-6.67 7.66 -6.34 8.32 -6 9 C-4.68 9 -3.36 9 -2 9 C-2 8.01 -2 7.02 -2 6 C-1.01 6 -0.02 6 1 6 C1 5.34 1 4.68 1 4 C-1.97 3.505 -1.97 3.505 -5 3 Z M6 3 C5.67 4.65 5.34 6.3 5 8 C7.475 8.495 7.475 8.495 10 9 C10.6814823 7.10820797 10.6814823 7.10820797 11 5 C10.34 4.34 9.68 3.68 9 3 C8.01 3 7.02 3 6 3 Z M27 3 C27 4.98 27 6.96 27 9 C28.65 8.67 30.3 8.34 32 8 C31.67 6.68 31.34 5.36 31 4 C29.68 3.67 28.36 3.34 27 3 Z M39 3 C39 3.66 39 4.32 39 5 C40.65 5 42.3 5 44 5 C44 5.99 44 6.98 44 8 C42.35 8 40.7 8 39 8 C39 8.33 39 8.66 39 9 C40.98 9 42.96 9 45 9 C45 7.02 45 5.04 45 3 C43.02 3 41.04 3 39 3 Z M49 7 C49 8.65 49 10.3 49 12 C50.32 11.67 51.64 11.34 53 11 C51.68 9.68 50.36 8.36 49 7 Z M34 10 C33.67 10.66 33.34 11.32 33 12 C33.66 12 34.32 12 35 12 C34.67 11.34 34.34 10.68 34 10 Z M21 12 C22.86566488 15.62793998 22.86566488 15.62793998 26 18 C26 16.02 26 14.04 26 12 C24.35 12 22.7 12 21 12 Z M39 12 C39.33 12.66 39.66 13.32 40 14 C40.66 13.34 41.32 12.68 42 12 C41.01 12 40.02 12 39 12 Z M33 15 C33 15.66 33 16.32 33 17 C34.98 17 36.96 17 39 17 C39 16.34 39 15.68 39 15 C37.02 15 35.04 15 33 15 Z M39 18 C39 18.66 39 19.32 39 20 C37.02 20 35.04 20 33 20 C33 20.66 33 21.32 33 22 C36.96 22 40.92 22 45 22 C45 21.34 45 20.68 45 20 C43.02 19.34 41.04 18.68 39 18 Z " fill="#F9AF41" transform="translate(10,33)"/>
<path d="M0 0 C2.31 1.98 4.62 3.96 7 6 C7.66 6 8.32 6 9 6 C9.99 6 10.98 6 12 6 C12.268125 7.0725 12.53625 8.145 12.8125 9.25 C13.86227827 12.56508928 14.74612328 14.43877646 17 17 C15.68 17 14.36 17 13 17 C12.90203125 17.59167969 12.8040625 18.18335937 12.703125 18.79296875 C11.74648024 23.84834148 10.75233265 27.24766735 7 31 C3.53472176 32.73263912 -0.21107028 32.4719774 -4 32 C-8.00896057 29.6969801 -9.77747296 27.44555288 -11 23 C-11 21.68 -11 20.36 -11 19 C-8.36 19 -5.72 19 -3 19 C-3 19.66 -3 20.32 -3 21 C-4.65 21 -6.3 21 -8 21 C-6.55313683 24.69753921 -5.71501401 26.60277 -2.1875 28.5625 C1.85048027 29.11673259 3.62752789 28.19602835 7 26 C8.36011539 23.27976922 8.2062431 21.0338119 8.25 18 C8.27578125 16.9275 8.3015625 15.855 8.328125 14.75 C8.21984375 13.8425 8.1115625 12.935 8 12 C7.01 11.34 6.02 10.68 5 10 C4.54109375 10.51691406 4.0821875 11.03382812 3.609375 11.56640625 C2.99578125 12.22511719 2.3821875 12.88382813 1.75 13.5625 C1.14671875 14.22378906 0.5434375 14.88507812 -0.078125 15.56640625 C-0.71234375 16.03949219 -1.3465625 16.51257813 -2 17 C-3.32 16.67 -4.64 16.34 -6 16 C-3.36 13.03 -0.72 10.06 2 7 C1.34 6.34 0.68 5.68 0 5 C-1.22976562 6.31677734 -1.22976562 6.31677734 -2.484375 7.66015625 C-3.57224397 8.79491612 -4.66082277 9.92899579 -5.75 11.0625 C-6.55824219 11.93358398 -6.55824219 11.93358398 -7.3828125 12.82226562 C-8.984375 14.47265625 -8.984375 14.47265625 -12 17 C-13.32 16.67 -14.64 16.34 -16 16 C-10.72 10.72 -5.44 5.44 0 0 Z " fill="#F9AF41" transform="translate(33,0)"/>
<path d="M0 0 C9.33333333 0 18.66666667 0 28 0 C28 0.99 28 1.98 28 3 C27.01 3 26.02 3 25 3 C25 6.3 25 9.6 25 13 C23.68 13 22.36 13 21 13 C20.67 10.03 20.34 7.06 20 4 C17.69 3.67 15.38 3.34 13 3 C13 3.66 13 4.32 13 5 C14.65 5.33 16.3 5.66 18 6 C18.625 8.375 18.625 8.375 19 11 C17 13 17 13 13.0859375 13.1953125 C11.51550649 13.18200376 9.94513779 13.15813602 8.375 13.125 C7.57320312 13.11597656 6.77140625 13.10695313 5.9453125 13.09765625 C3.96341477 13.07406223 1.98167019 13.03819065 0 13 C0 8.71 0 4.42 0 0 Z M3 3 C3 3.66 3 4.32 3 5 C4.98 5 6.96 5 9 5 C9 4.34 9 3.68 9 3 C7.02 3 5.04 3 3 3 Z M9 6 C9 6.66 9 7.32 9 8 C7.02 8 5.04 8 3 8 C3 8.66 3 9.32 3 10 C6.96 10 10.92 10 15 10 C15 9.34 15 8.68 15 8 C13.02 7.34 11.04 6.68 9 6 Z " fill="#020202" transform="translate(40,45)"/>
<path d="M0 0 C4.29425875 1.07356469 4.74740471 1.5084773 7 5 C7.33 3.35 7.66 1.7 8 0 C8.99 0 9.98 0 11 0 C11 4.29 11 8.58 11 13 C6.70574125 11.92643531 6.25259529 11.4915227 4 8 C3.67 9.65 3.34 11.3 3 13 C2.01 13 1.02 13 0 13 C0 8.71 0 4.42 0 0 Z " fill="#020202" transform="translate(28,45)"/>
<path d="M0 0 C1.32 0 2.64 0 4 0 C4 1.32 4 2.64 4 4 C2.68 3.67 1.36 3.34 0 3 C0 2.01 0 1.02 0 0 Z " fill="#F9AF41" transform="translate(36,12)"/>
</svg>
